solid CATIA STL
  facet normal -1.000000e+000  0.000000e+000  0.000000e+000
    outer loop
      vertex  1.900000e+001 -2.105550e+001 -7.690307e+000
      vertex  1.900000e+001 -2.030969e+001  6.944495e+000
      vertex  1.900000e+001 -2.052737e+001 -7.034659e+000
    endloop
  endfacet
  facet normal -1.000000e+000  -0.000000e+000  0.000000e+000
    outer loop
      vertex  1.900000e+001 -2.200000e+001  1.000000e+001
      vertex  1.900000e+001  2.200000e+001  1.000000e+001
      vertex  1.900000e+001 -1.969031e+001  9.055505e+000
    endloop
  endfacet
  facet normal -1.000000e+000  -0.000000e+000  0.000000e+000
    outer loop
      vertex  1.900000e+001 -2.200000e+001  1.000000e+001
      vertex  1.900000e+001 -1.969031e+001  9.055505e+000
      vertex  1.900000e+001 -2.052737e+001  8.965341e+000
    endloop
  endfacet
  facet normal -1.000000e+000  -0.000000e+000  0.000000e+000
    outer loop
      vertex  1.900000e+001 -2.200000e+001  1.000000e+001
      vertex  1.900000e+001 -2.052737e+001  8.965341e+000
      vertex  1.900000e+001 -2.105550e+001  8.309693e+000
    endloop
  endfacet
  facet normal -1.000000e+000  -0.000000e+000  0.000000e+000
    outer loop
      vertex  1.900000e+001 -2.200000e+001  1.000000e+001
      vertex  1.900000e+001 -2.105550e+001  8.309693e+000
      vertex  1.900000e+001 -2.200000e+001 -1.000000e+001
    endloop
  endfacet
  facet normal -1.000000e+000  0.000000e+000  -0.000000e+000
    outer loop
      vertex  1.900000e+001 -2.200000e+001 -1.000000e+001
      vertex  1.900000e+001 -2.105550e+001  8.309693e+000
      vertex  1.900000e+001 -2.096534e+001  7.472632e+000
    endloop
  endfacet
  facet normal -1.000000e+000  0.000000e+000  -0.000000e+000
    outer loop
      vertex  1.900000e+001 -2.200000e+001 -1.000000e+001
      vertex  1.900000e+001 -2.096534e+001  7.472632e+000
      vertex  1.900000e+001 -2.030969e+001  6.944495e+000
    endloop
  endfacet
  facet normal -1.000000e+000  0.000000e+000  0.000000e+000
    outer loop
      vertex  1.900000e+001 -2.200000e+001 -1.000000e+001
      vertex  1.900000e+001 -2.030969e+001  6.944495e+000
      vertex  1.900000e+001 -2.105550e+001 -7.690307e+000
    endloop
  endfacet
  facet normal -1.000000e+000  0.000000e+000  -0.000000e+000
    outer loop
      vertex  1.900000e+001 -2.200000e+001 -1.000000e+001
      vertex  1.900000e+001 -2.105550e+001 -7.690307e+000
      vertex  1.900000e+001 -2.096534e+001 -8.527369e+000
    endloop
  endfacet
  facet normal -9.999999e-001  0.000000e+000  -0.000000e+000
    outer loop
      vertex  1.900000e+001 -2.200000e+001 -1.000000e+001
      vertex  1.900000e+001 -2.096534e+001 -8.527369e+000
      vertex  1.900000e+001 -2.030969e+001 -9.055505e+000
    endloop
  endfacet
  facet normal -9.999999e-001  0.000000e+000  -0.000000e+000
    outer loop
      vertex  1.900000e+001 -2.200000e+001 -1.000000e+001
      vertex  1.900000e+001 -2.030969e+001 -9.055505e+000
      vertex  1.900000e+001  2.200000e+001 -1.000000e+001
    endloop
  endfacet
  facet normal -1.000000e+000  0.000000e+000  0.000000e+000
    outer loop
      vertex  1.900000e+001  2.200000e+001 -1.000000e+001
      vertex  1.900000e+001 -2.030969e+001 -9.055505e+000
      vertex  1.900000e+001 -1.947263e+001 -8.965341e+000
    endloop
  endfacet
  facet normal -1.000000e+000  0.000000e+000  0.000000e+000
    outer loop
      vertex  1.900000e+001  2.200000e+001 -1.000000e+001
      vertex  1.900000e+001 -1.947263e+001 -8.965341e+000
      vertex  1.900000e+001  1.969031e+001 -9.055505e+000
    endloop
  endfacet
  facet normal -1.000000e+000  0.000000e+000  0.000000e+000
    outer loop
      vertex  1.900000e+001  2.200000e+001 -1.000000e+001
      vertex  1.900000e+001  1.969031e+001 -9.055505e+000
      vertex  1.900000e+001  2.052737e+001 -8.965341e+000
    endloop
  endfacet
  facet normal -1.000000e+000  0.000000e+000  0.000000e+000
    outer loop
      vertex  1.900000e+001  2.200000e+001 -1.000000e+001
      vertex  1.900000e+001  2.052737e+001 -8.965341e+000
      vertex  1.900000e+001  2.105550e+001 -8.309693e+000
    endloop
  endfacet
  facet normal -1.000000e+000  0.000000e+000  0.000000e+000
    outer loop
      vertex  1.900000e+001  2.200000e+001 -1.000000e+001
      vertex  1.900000e+001  2.105550e+001 -8.309693e+000
      vertex  1.900000e+001  2.096534e+001 -7.472632e+000
    endloop
  endfacet
  facet normal -9.999999e-001  0.000000e+000  0.000000e+000
    outer loop
      vertex  1.900000e+001  2.200000e+001 -1.000000e+001
      vertex  1.900000e+001  2.096534e+001 -7.472632e+000
      vertex  1.900000e+001  2.052737e+001  7.034659e+000
    endloop
  endfacet
  facet normal -1.000000e+000  0.000000e+000  0.000000e+000
    outer loop
      vertex  1.900000e+001  2.200000e+001 -1.000000e+001
      vertex  1.900000e+001  2.052737e+001  7.034659e+000
      vertex  1.900000e+001  2.105550e+001  7.690307e+000
    endloop
  endfacet
  facet normal -1.000000e+000  0.000000e+000  0.000000e+000
    outer loop
      vertex  1.900000e+001  2.200000e+001  1.000000e+001
      vertex  1.900000e+001  2.200000e+001 -1.000000e+001
      vertex  1.900000e+001  2.105550e+001  7.690307e+000
    endloop
  endfacet
  facet normal -1.000000e+000  0.000000e+000  0.000000e+000
    outer loop
      vertex  1.900000e+001  2.200000e+001  1.000000e+001
      vertex  1.900000e+001  2.105550e+001  7.690307e+000
      vertex  1.900000e+001  2.096534e+001  8.527369e+000
    endloop
  endfacet
  facet normal -9.999999e-001  0.000000e+000  0.000000e+000
    outer loop
      vertex  1.900000e+001  2.200000e+001  1.000000e+001
      vertex  1.900000e+001  2.096534e+001  8.527369e+000
      vertex  1.900000e+001  2.030969e+001  9.055505e+000
    endloop
  endfacet
  facet normal -1.000000e+000  -0.000000e+000  0.000000e+000
    outer loop
      vertex  1.900000e+001  2.200000e+001  1.000000e+001
      vertex  1.900000e+001  2.030969e+001  9.055505e+000
      vertex  1.900000e+001  1.947263e+001  8.965341e+000
    endloop
  endfacet
  facet normal -1.000000e+000  -0.000000e+000  0.000000e+000
    outer loop
      vertex  1.900000e+001  2.200000e+001  1.000000e+001
      vertex  1.900000e+001  1.947263e+001  8.965341e+000
      vertex  1.900000e+001 -1.903466e+001  8.527369e+000
    endloop
  endfacet
  facet normal -1.000000e+000  0.000000e+000  0.000000e+000
    outer loop
      vertex  1.900000e+001  2.200000e+001  1.000000e+001
      vertex  1.900000e+001 -1.903466e+001  8.527369e+000
      vertex  1.900000e+001 -1.969031e+001  9.055505e+000
    endloop
  endfacet
  facet normal -1.000000e+000  0.000000e+000  -0.000000e+000
    outer loop
      vertex  1.900000e+001 -2.052737e+001 -7.034659e+000
      vertex  1.900000e+001 -2.030969e+001  6.944495e+000
      vertex  1.900000e+001 -1.969031e+001 -6.944495e+000
    endloop
  endfacet
  facet normal -1.000000e+000  0.000000e+000  0.000000e+000
    outer loop
      vertex  1.900000e+001 -1.969031e+001 -6.944495e+000
      vertex  1.900000e+001 -2.030969e+001  6.944495e+000
      vertex  1.900000e+001 -1.947263e+001  7.034659e+000
    endloop
  endfacet
  facet normal -1.000000e+000  0.000000e+000  -0.000000e+000
    outer loop
      vertex  1.900000e+001 -1.969031e+001 -6.944495e+000
      vertex  1.900000e+001 -1.947263e+001  7.034659e+000
      vertex  1.900000e+001  1.969031e+001  6.944495e+000
    endloop
  endfacet
  facet normal -9.999999e-001  0.000000e+000  0.000000e+000
    outer loop
      vertex  1.900000e+001 -1.903466e+001 -7.472632e+000
      vertex  1.900000e+001 -1.969031e+001 -6.944495e+000
      vertex  1.900000e+001  1.947263e+001 -7.034659e+000
    endloop
  endfacet
  facet normal -1.000000e+000  0.000000e+000  0.000000e+000
    outer loop
      vertex  1.900000e+001  1.947263e+001 -7.034659e+000
      vertex  1.900000e+001 -1.969031e+001 -6.944495e+000
      vertex  1.900000e+001  1.969031e+001  6.944495e+000
    endloop
  endfacet
  facet normal -1.000000e+000  0.000000e+000  -0.000000e+000
    outer loop
      vertex  1.900000e+001  1.947263e+001 -7.034659e+000
      vertex  1.900000e+001  1.969031e+001  6.944495e+000
      vertex  1.900000e+001  2.030969e+001 -6.944495e+000
    endloop
  endfacet
  facet normal -1.000000e+000  0.000000e+000  0.000000e+000
    outer loop
      vertex  1.900000e+001  2.030969e+001 -6.944495e+000
      vertex  1.900000e+001  1.969031e+001  6.944495e+000
      vertex  1.900000e+001  2.052737e+001  7.034659e+000
    endloop
  endfacet
  facet normal -1.000000e+000  0.000000e+000  -0.000000e+000
    outer loop
      vertex  1.900000e+001  2.030969e+001 -6.944495e+000
      vertex  1.900000e+001  2.052737e+001  7.034659e+000
      vertex  1.900000e+001  2.096534e+001 -7.472632e+000
    endloop
  endfacet
  facet normal -9.999999e-001  0.000000e+000  0.000000e+000
    outer loop
      vertex  1.900000e+001  1.969031e+001  6.944495e+000
      vertex  1.900000e+001 -1.947263e+001  7.034659e+000
      vertex  1.900000e+001  1.903466e+001  7.472632e+000
    endloop
  endfacet
  facet normal -1.000000e+000  -0.000000e+000  0.000000e+000
    outer loop
      vertex  1.900000e+001  1.903466e+001  7.472632e+000
      vertex  1.900000e+001 -1.947263e+001  7.034659e+000
      vertex  1.900000e+001 -1.894450e+001  7.690307e+000
    endloop
  endfacet
  facet normal -1.000000e+000  0.000000e+000  0.000000e+000
    outer loop
      vertex  1.900000e+001  1.903466e+001  7.472632e+000
      vertex  1.900000e+001 -1.894450e+001  7.690307e+000
      vertex  1.900000e+001  1.894450e+001  8.309693e+000
    endloop
  endfacet
  facet normal -1.000000e+000  -0.000000e+000  0.000000e+000
    outer loop
      vertex  1.900000e+001  1.894450e+001  8.309693e+000
      vertex  1.900000e+001 -1.894450e+001  7.690307e+000
      vertex  1.900000e+001 -1.903466e+001  8.527369e+000
    endloop
  endfacet
  facet normal -1.000000e+000  0.000000e+000  0.000000e+000
    outer loop
      vertex  1.900000e+001  1.894450e+001  8.309693e+000
      vertex  1.900000e+001 -1.903466e+001  8.527369e+000
      vertex  1.900000e+001  1.947263e+001  8.965341e+000
    endloop
  endfacet
  facet normal -1.000000e+000  0.000000e+000  0.000000e+000
    outer loop
      vertex  1.900000e+001  1.969031e+001 -9.055505e+000
      vertex  1.900000e+001 -1.947263e+001 -8.965341e+000
      vertex  1.900000e+001  1.903466e+001 -8.527369e+000
    endloop
  endfacet
  facet normal -1.000000e+000  -0.000000e+000  0.000000e+000
    outer loop
      vertex  1.900000e+001  1.903466e+001 -8.527369e+000
      vertex  1.900000e+001 -1.947263e+001 -8.965341e+000
      vertex  1.900000e+001 -1.894450e+001 -8.309693e+000
    endloop
  endfacet
  facet normal -1.000000e+000  0.000000e+000  0.000000e+000
    outer loop
      vertex  1.900000e+001  1.903466e+001 -8.527369e+000
      vertex  1.900000e+001 -1.894450e+001 -8.309693e+000
      vertex  1.900000e+001  1.894450e+001 -7.690307e+000
    endloop
  endfacet
  facet normal -1.000000e+000  -0.000000e+000  0.000000e+000
    outer loop
      vertex  1.900000e+001  1.894450e+001 -7.690307e+000
      vertex  1.900000e+001 -1.894450e+001 -8.309693e+000
      vertex  1.900000e+001 -1.903466e+001 -7.472632e+000
    endloop
  endfacet
  facet normal -1.000000e+000  0.000000e+000  0.000000e+000
    outer loop
      vertex  1.900000e+001  1.894450e+001 -7.690307e+000
      vertex  1.900000e+001 -1.903466e+001 -7.472632e+000
      vertex  1.900000e+001  1.947263e+001 -7.034659e+000
    endloop
  endfacet
  facet normal  1.000000e+000  0.000000e+000  0.000000e+000
    outer loop
      vertex  2.000000e+001 -2.052737e+001 -7.034659e+000
      vertex  2.000000e+001 -2.030969e+001  6.944495e+000
      vertex  2.000000e+001 -2.105550e+001 -7.690307e+000
    endloop
  endfacet
  facet normal  1.000000e+000  0.000000e+000  0.000000e+000
    outer loop
      vertex  2.000000e+001 -2.200000e+001  1.000000e+001
      vertex  2.000000e+001 -2.200000e+001 -1.000000e+001
      vertex  2.000000e+001 -2.105550e+001  8.309693e+000
    endloop
  endfacet
  facet normal  1.000000e+000  0.000000e+000  -0.000000e+000
    outer loop
      vertex  2.000000e+001 -2.200000e+001  1.000000e+001
      vertex  2.000000e+001 -2.105550e+001  8.309693e+000
      vertex  2.000000e+001 -2.052737e+001  8.965341e+000
    endloop
  endfacet
  facet normal  1.000000e+000  0.000000e+000  -0.000000e+000
    outer loop
      vertex  2.000000e+001 -2.200000e+001  1.000000e+001
      vertex  2.000000e+001 -2.052737e+001  8.965341e+000
      vertex  2.000000e+001 -1.969031e+001  9.055505e+000
    endloop
  endfacet
  facet normal  1.000000e+000  0.000000e+000  -0.000000e+000
    outer loop
      vertex  2.000000e+001 -2.200000e+001  1.000000e+001
      vertex  2.000000e+001 -1.969031e+001  9.055505e+000
      vertex  2.000000e+001  2.200000e+001  1.000000e+001
    endloop
  endfacet
  facet normal  1.000000e+000  0.000000e+000  0.000000e+000
    outer loop
      vertex  2.000000e+001 -2.200000e+001 -1.000000e+001
      vertex  2.000000e+001  2.200000e+001 -1.000000e+001
      vertex  2.000000e+001 -2.030969e+001 -9.055505e+000
    endloop
  endfacet
  facet normal  9.999999e-001  0.000000e+000  0.000000e+000
    outer loop
      vertex  2.000000e+001 -2.200000e+001 -1.000000e+001
      vertex  2.000000e+001 -2.030969e+001 -9.055505e+000
      vertex  2.000000e+001 -2.096534e+001 -8.527369e+000
    endloop
  endfacet
  facet normal  1.000000e+000  0.000000e+000  0.000000e+000
    outer loop
      vertex  2.000000e+001 -2.200000e+001 -1.000000e+001
      vertex  2.000000e+001 -2.096534e+001 -8.527369e+000
      vertex  2.000000e+001 -2.105550e+001 -7.690307e+000
    endloop
  endfacet
  facet normal  1.000000e+000  0.000000e+000  -0.000000e+000
    outer loop
      vertex  2.000000e+001 -2.200000e+001 -1.000000e+001
      vertex  2.000000e+001 -2.105550e+001 -7.690307e+000
      vertex  2.000000e+001 -2.030969e+001  6.944495e+000
    endloop
  endfacet
  facet normal  1.000000e+000  0.000000e+000  0.000000e+000
    outer loop
      vertex  2.000000e+001 -2.200000e+001 -1.000000e+001
      vertex  2.000000e+001 -2.030969e+001  6.944495e+000
      vertex  2.000000e+001 -2.096534e+001  7.472632e+000
    endloop
  endfacet
  facet normal  1.000000e+000  0.000000e+000  0.000000e+000
    outer loop
      vertex  2.000000e+001 -2.200000e+001 -1.000000e+001
      vertex  2.000000e+001 -2.096534e+001  7.472632e+000
      vertex  2.000000e+001 -2.105550e+001  8.309693e+000
    endloop
  endfacet
  facet normal  1.000000e+000  0.000000e+000  0.000000e+000
    outer loop
      vertex  2.000000e+001  2.200000e+001 -1.000000e+001
      vertex  2.000000e+001  2.105550e+001  7.690307e+000
      vertex  2.000000e+001  2.052737e+001  7.034659e+000
    endloop
  endfacet
  facet normal  1.000000e+000  0.000000e+000  0.000000e+000
    outer loop
      vertex  2.000000e+001  2.200000e+001 -1.000000e+001
      vertex  2.000000e+001  2.052737e+001  7.034659e+000
      vertex  2.000000e+001  2.096534e+001 -7.472632e+000
    endloop
  endfacet
  facet normal  1.000000e+000  0.000000e+000  0.000000e+000
    outer loop
      vertex  2.000000e+001  2.200000e+001 -1.000000e+001
      vertex  2.000000e+001  2.096534e+001 -7.472632e+000
      vertex  2.000000e+001  2.105550e+001 -8.309693e+000
    endloop
  endfacet
  facet normal  1.000000e+000  0.000000e+000  0.000000e+000
    outer loop
      vertex  2.000000e+001  2.200000e+001 -1.000000e+001
      vertex  2.000000e+001  2.105550e+001 -8.309693e+000
      vertex  2.000000e+001  2.052737e+001 -8.965341e+000
    endloop
  endfacet
  facet normal  1.000000e+000  0.000000e+000  0.000000e+000
    outer loop
      vertex  2.000000e+001  2.200000e+001 -1.000000e+001
      vertex  2.000000e+001  2.052737e+001 -8.965341e+000
      vertex  2.000000e+001  1.969031e+001 -9.055505e+000
    endloop
  endfacet
  facet normal  1.000000e+000  0.000000e+000  0.000000e+000
    outer loop
      vertex  2.000000e+001  2.200000e+001 -1.000000e+001
      vertex  2.000000e+001  1.969031e+001 -9.055505e+000
      vertex  2.000000e+001 -1.947263e+001 -8.965341e+000
    endloop
  endfacet
  facet normal  1.000000e+000  0.000000e+000  0.000000e+000
    outer loop
      vertex  2.000000e+001  2.200000e+001 -1.000000e+001
      vertex  2.000000e+001 -1.947263e+001 -8.965341e+000
      vertex  2.000000e+001 -2.030969e+001 -9.055505e+000
    endloop
  endfacet
  facet normal  1.000000e+000  -0.000000e+000  0.000000e+000
    outer loop
      vertex  2.000000e+001  2.200000e+001  1.000000e+001
      vertex  2.000000e+001 -1.969031e+001  9.055505e+000
      vertex  2.000000e+001 -1.903466e+001  8.527369e+000
    endloop
  endfacet
  facet normal  1.000000e+000  0.000000e+000  0.000000e+000
    outer loop
      vertex  2.000000e+001  2.200000e+001  1.000000e+001
      vertex  2.000000e+001 -1.903466e+001  8.527369e+000
      vertex  2.000000e+001  1.947263e+001  8.965341e+000
    endloop
  endfacet
  facet normal  1.000000e+000  0.000000e+000  0.000000e+000
    outer loop
      vertex  2.000000e+001  2.200000e+001  1.000000e+001
      vertex  2.000000e+001  1.947263e+001  8.965341e+000
      vertex  2.000000e+001  2.030969e+001  9.055505e+000
    endloop
  endfacet
  facet normal  9.999999e-001  -0.000000e+000  0.000000e+000
    outer loop
      vertex  2.000000e+001  2.200000e+001  1.000000e+001
      vertex  2.000000e+001  2.030969e+001  9.055505e+000
      vertex  2.000000e+001  2.096534e+001  8.527369e+000
    endloop
  endfacet
  facet normal  1.000000e+000  -0.000000e+000  0.000000e+000
    outer loop
      vertex  2.000000e+001  2.200000e+001  1.000000e+001
      vertex  2.000000e+001  2.096534e+001  8.527369e+000
      vertex  2.000000e+001  2.105550e+001  7.690307e+000
    endloop
  endfacet
  facet normal  1.000000e+000  -0.000000e+000  0.000000e+000
    outer loop
      vertex  2.000000e+001  2.200000e+001  1.000000e+001
      vertex  2.000000e+001  2.105550e+001  7.690307e+000
      vertex  2.000000e+001  2.200000e+001 -1.000000e+001
    endloop
  endfacet
  facet normal  1.000000e+000  0.000000e+000  0.000000e+000
    outer loop
      vertex  2.000000e+001  1.969031e+001  6.944495e+000
      vertex  2.000000e+001 -1.947263e+001  7.034659e+000
      vertex  2.000000e+001 -1.969031e+001 -6.944495e+000
    endloop
  endfacet
  facet normal  1.000000e+000  0.000000e+000  -0.000000e+000
    outer loop
      vertex  2.000000e+001 -1.969031e+001 -6.944495e+000
      vertex  2.000000e+001 -1.947263e+001  7.034659e+000
      vertex  2.000000e+001 -2.030969e+001  6.944495e+000
    endloop
  endfacet
  facet normal  1.000000e+000  0.000000e+000  0.000000e+000
    outer loop
      vertex  2.000000e+001 -1.969031e+001 -6.944495e+000
      vertex  2.000000e+001 -2.030969e+001  6.944495e+000
      vertex  2.000000e+001 -2.052737e+001 -7.034659e+000
    endloop
  endfacet
  facet normal  1.000000e+000  0.000000e+000  0.000000e+000
    outer loop
      vertex  2.000000e+001  2.096534e+001 -7.472632e+000
      vertex  2.000000e+001  2.052737e+001  7.034659e+000
      vertex  2.000000e+001  2.030969e+001 -6.944495e+000
    endloop
  endfacet
  facet normal  1.000000e+000  0.000000e+000  -0.000000e+000
    outer loop
      vertex  2.000000e+001  2.030969e+001 -6.944495e+000
      vertex  2.000000e+001  2.052737e+001  7.034659e+000
      vertex  2.000000e+001  1.969031e+001  6.944495e+000
    endloop
  endfacet
  facet normal  1.000000e+000  0.000000e+000  0.000000e+000
    outer loop
      vertex  2.000000e+001  2.030969e+001 -6.944495e+000
      vertex  2.000000e+001  1.969031e+001  6.944495e+000
      vertex  2.000000e+001  1.947263e+001 -7.034659e+000
    endloop
  endfacet
  facet normal  1.000000e+000  0.000000e+000  -0.000000e+000
    outer loop
      vertex  2.000000e+001  1.947263e+001 -7.034659e+000
      vertex  2.000000e+001  1.969031e+001  6.944495e+000
      vertex  2.000000e+001 -1.969031e+001 -6.944495e+000
    endloop
  endfacet
  facet normal  9.999999e-001  0.000000e+000  0.000000e+000
    outer loop
      vertex  2.000000e+001  1.947263e+001 -7.034659e+000
      vertex  2.000000e+001 -1.969031e+001 -6.944495e+000
      vertex  2.000000e+001 -1.903466e+001 -7.472632e+000
    endloop
  endfacet
  facet normal  1.000000e+000  -0.000000e+000  0.000000e+000
    outer loop
      vertex  2.000000e+001  1.947263e+001  8.965341e+000
      vertex  2.000000e+001 -1.903466e+001  8.527369e+000
      vertex  2.000000e+001  1.894450e+001  8.309693e+000
    endloop
  endfacet
  facet normal  1.000000e+000  0.000000e+000  0.000000e+000
    outer loop
      vertex  2.000000e+001  1.894450e+001  8.309693e+000
      vertex  2.000000e+001 -1.903466e+001  8.527369e+000
      vertex  2.000000e+001 -1.894450e+001  7.690307e+000
    endloop
  endfacet
  facet normal  1.000000e+000  -0.000000e+000  0.000000e+000
    outer loop
      vertex  2.000000e+001  1.894450e+001  8.309693e+000
      vertex  2.000000e+001 -1.894450e+001  7.690307e+000
      vertex  2.000000e+001  1.903466e+001  7.472632e+000
    endloop
  endfacet
  facet normal  1.000000e+000  0.000000e+000  0.000000e+000
    outer loop
      vertex  2.000000e+001  1.903466e+001  7.472632e+000
      vertex  2.000000e+001 -1.894450e+001  7.690307e+000
      vertex  2.000000e+001 -1.947263e+001  7.034659e+000
    endloop
  endfacet
  facet normal  9.999999e-001  -0.000000e+000  0.000000e+000
    outer loop
      vertex  2.000000e+001  1.903466e+001  7.472632e+000
      vertex  2.000000e+001 -1.947263e+001  7.034659e+000
      vertex  2.000000e+001  1.969031e+001  6.944495e+000
    endloop
  endfacet
  facet normal  1.000000e+000  -0.000000e+000  0.000000e+000
    outer loop
      vertex  2.000000e+001  1.947263e+001 -7.034659e+000
      vertex  2.000000e+001 -1.903466e+001 -7.472632e+000
      vertex  2.000000e+001  1.894450e+001 -7.690307e+000
    endloop
  endfacet
  facet normal  1.000000e+000  0.000000e+000  0.000000e+000
    outer loop
      vertex  2.000000e+001  1.894450e+001 -7.690307e+000
      vertex  2.000000e+001 -1.903466e+001 -7.472632e+000
      vertex  2.000000e+001 -1.894450e+001 -8.309693e+000
    endloop
  endfacet
  facet normal  1.000000e+000  -0.000000e+000  0.000000e+000
    outer loop
      vertex  2.000000e+001  1.894450e+001 -7.690307e+000
      vertex  2.000000e+001 -1.894450e+001 -8.309693e+000
      vertex  2.000000e+001  1.903466e+001 -8.527369e+000
    endloop
  endfacet
  facet normal  1.000000e+000  0.000000e+000  0.000000e+000
    outer loop
      vertex  2.000000e+001  1.903466e+001 -8.527369e+000
      vertex  2.000000e+001 -1.894450e+001 -8.309693e+000
      vertex  2.000000e+001 -1.947263e+001 -8.965341e+000
    endloop
  endfacet
  facet normal  1.000000e+000  -0.000000e+000  0.000000e+000
    outer loop
      vertex  2.000000e+001  1.903466e+001 -8.527369e+000
      vertex  2.000000e+001 -1.947263e+001 -8.965341e+000
      vertex  2.000000e+001  1.969031e+001 -9.055505e+000
    endloop
  endfacet
  facet normal  0.000000e+000  7.787684e-001 -6.273115e-001
    outer loop
      vertex  1.900000e+001 -2.052737e+001 -7.034659e+000
      vertex  2.000000e+001 -2.105550e+001 -7.690307e+000
      vertex  1.900000e+001 -2.105550e+001 -7.690307e+000
    endloop
  endfacet
  facet normal  -0.000000e+000  9.942490e-001  1.070933e-001
    outer loop
      vertex  1.900000e+001 -2.105550e+001 -7.690307e+000
      vertex  2.000000e+001 -2.105550e+001 -7.690307e+000
      vertex  2.000000e+001 -2.096534e+001 -8.527369e+000
    endloop
  endfacet
  facet normal  0.000000e+000  9.942490e-001  1.070933e-001
    outer loop
      vertex  1.900000e+001 -2.105550e+001 -7.690307e+000
      vertex  2.000000e+001 -2.096534e+001 -8.527369e+000
      vertex  1.900000e+001 -2.096534e+001 -8.527369e+000
    endloop
  endfacet
  facet normal  0.000000e+000  7.787684e-001 -6.273115e-001
    outer loop
      vertex  2.000000e+001 -2.105550e+001 -7.690307e+000
      vertex  1.900000e+001 -2.052737e+001 -7.034659e+000
      vertex  2.000000e+001 -2.052737e+001 -7.034659e+000
    endloop
  endfacet
  facet normal  0.000000e+000  1.070955e-001 -9.942488e-001
    outer loop
      vertex  2.000000e+001 -2.052737e+001 -7.034659e+000
      vertex  1.900000e+001 -2.052737e+001 -7.034659e+000
      vertex  1.900000e+001 -1.969031e+001 -6.944495e+000
    endloop
  endfacet
  facet normal  0.000000e+000  1.070955e-001 -9.942488e-001
    outer loop
      vertex  2.000000e+001 -2.052737e+001 -7.034659e+000
      vertex  1.900000e+001 -1.969031e+001 -6.944495e+000
      vertex  2.000000e+001 -1.969031e+001 -6.944495e+000
    endloop
  endfacet
  facet normal  -0.000000e+000 -6.273126e-001 -7.787676e-001
    outer loop
      vertex  2.000000e+001 -1.969031e+001 -6.944495e+000
      vertex  1.900000e+001 -1.969031e+001 -6.944495e+000
      vertex  1.900000e+001 -1.903466e+001 -7.472632e+000
    endloop
  endfacet
  facet normal  0.000000e+000 -6.273126e-001 -7.787676e-001
    outer loop
      vertex  2.000000e+001 -1.969031e+001 -6.944495e+000
      vertex  1.900000e+001 -1.903466e+001 -7.472632e+000
      vertex  2.000000e+001 -1.903466e+001 -7.472632e+000
    endloop
  endfacet
  facet normal  0.000000e+000 -7.787684e-001  6.273115e-001
    outer loop
      vertex  1.900000e+001 -1.947263e+001 -8.965341e+000
      vertex  2.000000e+001 -1.894450e+001 -8.309693e+000
      vertex  1.900000e+001 -1.894450e+001 -8.309693e+000
    endloop
  endfacet
  facet normal  0.000000e+000 -9.942490e-001 -1.070934e-001
    outer loop
      vertex  1.900000e+001 -1.894450e+001 -8.309693e+000
      vertex  2.000000e+001 -1.894450e+001 -8.309693e+000
      vertex  2.000000e+001 -1.903466e+001 -7.472632e+000
    endloop
  endfacet
  facet normal  -0.000000e+000 -9.942490e-001 -1.070934e-001
    outer loop
      vertex  1.900000e+001 -1.894450e+001 -8.309693e+000
      vertex  2.000000e+001 -1.903466e+001 -7.472632e+000
      vertex  1.900000e+001 -1.903466e+001 -7.472632e+000
    endloop
  endfacet
  facet normal  0.000000e+000 -7.787684e-001  6.273115e-001
    outer loop
      vertex  2.000000e+001 -1.894450e+001 -8.309693e+000
      vertex  1.900000e+001 -1.947263e+001 -8.965341e+000
      vertex  2.000000e+001 -1.947263e+001 -8.965341e+000
    endloop
  endfacet
  facet normal  0.000000e+000 -1.070955e-001  9.942488e-001
    outer loop
      vertex  2.000000e+001 -1.947263e+001 -8.965341e+000
      vertex  1.900000e+001 -1.947263e+001 -8.965341e+000
      vertex  1.900000e+001 -2.030969e+001 -9.055505e+000
    endloop
  endfacet
  facet normal  0.000000e+000 -1.070955e-001  9.942488e-001
    outer loop
      vertex  2.000000e+001 -1.947263e+001 -8.965341e+000
      vertex  1.900000e+001 -2.030969e+001 -9.055505e+000
      vertex  2.000000e+001 -2.030969e+001 -9.055505e+000
    endloop
  endfacet
  facet normal  0.000000e+000  6.273122e-001  7.787679e-001
    outer loop
      vertex  2.000000e+001 -2.030969e+001 -9.055505e+000
      vertex  1.900000e+001 -2.030969e+001 -9.055505e+000
      vertex  1.900000e+001 -2.096534e+001 -8.527369e+000
    endloop
  endfacet
  facet normal  -0.000000e+000  6.273122e-001  7.787679e-001
    outer loop
      vertex  2.000000e+001 -2.030969e+001 -9.055505e+000
      vertex  1.900000e+001 -2.096534e+001 -8.527369e+000
      vertex  2.000000e+001 -2.096534e+001 -8.527369e+000
    endloop
  endfacet
  facet normal  0.000000e+000  7.787684e-001 -6.273115e-001
    outer loop
      vertex  1.900000e+001  1.947263e+001 -7.034659e+000
      vertex  2.000000e+001  1.894450e+001 -7.690307e+000
      vertex  1.900000e+001  1.894450e+001 -7.690307e+000
    endloop
  endfacet
  facet normal  -0.000000e+000  9.942490e-001  1.070933e-001
    outer loop
      vertex  1.900000e+001  1.894450e+001 -7.690307e+000
      vertex  2.000000e+001  1.894450e+001 -7.690307e+000
      vertex  2.000000e+001  1.903466e+001 -8.527369e+000
    endloop
  endfacet
  facet normal  0.000000e+000  9.942490e-001  1.070933e-001
    outer loop
      vertex  1.900000e+001  1.894450e+001 -7.690307e+000
      vertex  2.000000e+001  1.903466e+001 -8.527369e+000
      vertex  1.900000e+001  1.903466e+001 -8.527369e+000
    endloop
  endfacet
  facet normal  0.000000e+000  7.787684e-001 -6.273115e-001
    outer loop
      vertex  2.000000e+001  1.894450e+001 -7.690307e+000
      vertex  1.900000e+001  1.947263e+001 -7.034659e+000
      vertex  2.000000e+001  1.947263e+001 -7.034659e+000
    endloop
  endfacet
  facet normal  0.000000e+000  1.070955e-001 -9.942488e-001
    outer loop
      vertex  2.000000e+001  1.947263e+001 -7.034659e+000
      vertex  1.900000e+001  1.947263e+001 -7.034659e+000
      vertex  1.900000e+001  2.030969e+001 -6.944495e+000
    endloop
  endfacet
  facet normal  0.000000e+000  1.070955e-001 -9.942488e-001
    outer loop
      vertex  2.000000e+001  1.947263e+001 -7.034659e+000
      vertex  1.900000e+001  2.030969e+001 -6.944495e+000
      vertex  2.000000e+001  2.030969e+001 -6.944495e+000
    endloop
  endfacet
  facet normal  -0.000000e+000 -6.273126e-001 -7.787676e-001
    outer loop
      vertex  2.000000e+001  2.030969e+001 -6.944495e+000
      vertex  1.900000e+001  2.030969e+001 -6.944495e+000
      vertex  1.900000e+001  2.096534e+001 -7.472632e+000
    endloop
  endfacet
  facet normal  0.000000e+000 -6.273126e-001 -7.787676e-001
    outer loop
      vertex  2.000000e+001  2.030969e+001 -6.944495e+000
      vertex  1.900000e+001  2.096534e+001 -7.472632e+000
      vertex  2.000000e+001  2.096534e+001 -7.472632e+000
    endloop
  endfacet
  facet normal  0.000000e+000 -7.787684e-001  6.273115e-001
    outer loop
      vertex  1.900000e+001  2.052737e+001 -8.965341e+000
      vertex  2.000000e+001  2.105550e+001 -8.309693e+000
      vertex  1.900000e+001  2.105550e+001 -8.309693e+000
    endloop
  endfacet
  facet normal  0.000000e+000 -9.942490e-001 -1.070934e-001
    outer loop
      vertex  1.900000e+001  2.105550e+001 -8.309693e+000
      vertex  2.000000e+001  2.105550e+001 -8.309693e+000
      vertex  2.000000e+001  2.096534e+001 -7.472632e+000
    endloop
  endfacet
  facet normal  -0.000000e+000 -9.942490e-001 -1.070934e-001
    outer loop
      vertex  1.900000e+001  2.105550e+001 -8.309693e+000
      vertex  2.000000e+001  2.096534e+001 -7.472632e+000
      vertex  1.900000e+001  2.096534e+001 -7.472632e+000
    endloop
  endfacet
  facet normal  0.000000e+000 -7.787684e-001  6.273115e-001
    outer loop
      vertex  2.000000e+001  2.105550e+001 -8.309693e+000
      vertex  1.900000e+001  2.052737e+001 -8.965341e+000
      vertex  2.000000e+001  2.052737e+001 -8.965341e+000
    endloop
  endfacet
  facet normal  0.000000e+000 -1.070955e-001  9.942488e-001
    outer loop
      vertex  2.000000e+001  2.052737e+001 -8.965341e+000
      vertex  1.900000e+001  2.052737e+001 -8.965341e+000
      vertex  1.900000e+001  1.969031e+001 -9.055505e+000
    endloop
  endfacet
  facet normal  0.000000e+000 -1.070955e-001  9.942488e-001
    outer loop
      vertex  2.000000e+001  2.052737e+001 -8.965341e+000
      vertex  1.900000e+001  1.969031e+001 -9.055505e+000
      vertex  2.000000e+001  1.969031e+001 -9.055505e+000
    endloop
  endfacet
  facet normal  0.000000e+000  6.273122e-001  7.787679e-001
    outer loop
      vertex  2.000000e+001  1.969031e+001 -9.055505e+000
      vertex  1.900000e+001  1.969031e+001 -9.055505e+000
      vertex  1.900000e+001  1.903466e+001 -8.527369e+000
    endloop
  endfacet
  facet normal  -0.000000e+000  6.273122e-001  7.787679e-001
    outer loop
      vertex  2.000000e+001  1.969031e+001 -9.055505e+000
      vertex  1.900000e+001  1.903466e+001 -8.527369e+000
      vertex  2.000000e+001  1.903466e+001 -8.527369e+000
    endloop
  endfacet
  facet normal  0.000000e+000  7.787684e-001 -6.273115e-001
    outer loop
      vertex  1.900000e+001 -2.052737e+001  8.965341e+000
      vertex  2.000000e+001 -2.105550e+001  8.309693e+000
      vertex  1.900000e+001 -2.105550e+001  8.309693e+000
    endloop
  endfacet
  facet normal  -0.000000e+000  9.942490e-001  1.070934e-001
    outer loop
      vertex  1.900000e+001 -2.105550e+001  8.309693e+000
      vertex  2.000000e+001 -2.105550e+001  8.309693e+000
      vertex  2.000000e+001 -2.096534e+001  7.472632e+000
    endloop
  endfacet
  facet normal  0.000000e+000  9.942490e-001  1.070934e-001
    outer loop
      vertex  1.900000e+001 -2.105550e+001  8.309693e+000
      vertex  2.000000e+001 -2.096534e+001  7.472632e+000
      vertex  1.900000e+001 -2.096534e+001  7.472632e+000
    endloop
  endfacet
  facet normal  0.000000e+000  7.787684e-001 -6.273115e-001
    outer loop
      vertex  2.000000e+001 -2.105550e+001  8.309693e+000
      vertex  1.900000e+001 -2.052737e+001  8.965341e+000
      vertex  2.000000e+001 -2.052737e+001  8.965341e+000
    endloop
  endfacet
  facet normal  0.000000e+000  1.070955e-001 -9.942488e-001
    outer loop
      vertex  2.000000e+001 -2.052737e+001  8.965341e+000
      vertex  1.900000e+001 -2.052737e+001  8.965341e+000
      vertex  1.900000e+001 -1.969031e+001  9.055505e+000
    endloop
  endfacet
  facet normal  0.000000e+000  1.070955e-001 -9.942488e-001
    outer loop
      vertex  2.000000e+001 -2.052737e+001  8.965341e+000
      vertex  1.900000e+001 -1.969031e+001  9.055505e+000
      vertex  2.000000e+001 -1.969031e+001  9.055505e+000
    endloop
  endfacet
  facet normal  -0.000000e+000 -6.273122e-001 -7.787679e-001
    outer loop
      vertex  2.000000e+001 -1.969031e+001  9.055505e+000
      vertex  1.900000e+001 -1.969031e+001  9.055505e+000
      vertex  1.900000e+001 -1.903466e+001  8.527369e+000
    endloop
  endfacet
  facet normal  0.000000e+000 -6.273122e-001 -7.787679e-001
    outer loop
      vertex  2.000000e+001 -1.969031e+001  9.055505e+000
      vertex  1.900000e+001 -1.903466e+001  8.527369e+000
      vertex  2.000000e+001 -1.903466e+001  8.527369e+000
    endloop
  endfacet
  facet normal  0.000000e+000 -7.787684e-001  6.273115e-001
    outer loop
      vertex  1.900000e+001 -1.947263e+001  7.034659e+000
      vertex  2.000000e+001 -1.894450e+001  7.690307e+000
      vertex  1.900000e+001 -1.894450e+001  7.690307e+000
    endloop
  endfacet
  facet normal  0.000000e+000 -9.942490e-001 -1.070933e-001
    outer loop
      vertex  1.900000e+001 -1.894450e+001  7.690307e+000
      vertex  2.000000e+001 -1.894450e+001  7.690307e+000
      vertex  2.000000e+001 -1.903466e+001  8.527369e+000
    endloop
  endfacet
  facet normal  -0.000000e+000 -9.942490e-001 -1.070933e-001
    outer loop
      vertex  1.900000e+001 -1.894450e+001  7.690307e+000
      vertex  2.000000e+001 -1.903466e+001  8.527369e+000
      vertex  1.900000e+001 -1.903466e+001  8.527369e+000
    endloop
  endfacet
  facet normal  0.000000e+000 -7.787684e-001  6.273115e-001
    outer loop
      vertex  2.000000e+001 -1.894450e+001  7.690307e+000
      vertex  1.900000e+001 -1.947263e+001  7.034659e+000
      vertex  2.000000e+001 -1.947263e+001  7.034659e+000
    endloop
  endfacet
  facet normal  0.000000e+000 -1.070955e-001  9.942488e-001
    outer loop
      vertex  2.000000e+001 -1.947263e+001  7.034659e+000
      vertex  1.900000e+001 -1.947263e+001  7.034659e+000
      vertex  1.900000e+001 -2.030969e+001  6.944495e+000
    endloop
  endfacet
  facet normal  0.000000e+000 -1.070955e-001  9.942488e-001
    outer loop
      vertex  2.000000e+001 -1.947263e+001  7.034659e+000
      vertex  1.900000e+001 -2.030969e+001  6.944495e+000
      vertex  2.000000e+001 -2.030969e+001  6.944495e+000
    endloop
  endfacet
  facet normal  0.000000e+000  6.273126e-001  7.787676e-001
    outer loop
      vertex  2.000000e+001 -2.030969e+001  6.944495e+000
      vertex  1.900000e+001 -2.030969e+001  6.944495e+000
      vertex  1.900000e+001 -2.096534e+001  7.472632e+000
    endloop
  endfacet
  facet normal  -0.000000e+000  6.273126e-001  7.787676e-001
    outer loop
      vertex  2.000000e+001 -2.030969e+001  6.944495e+000
      vertex  1.900000e+001 -2.096534e+001  7.472632e+000
      vertex  2.000000e+001 -2.096534e+001  7.472632e+000
    endloop
  endfacet
  facet normal  0.000000e+000  7.787684e-001 -6.273115e-001
    outer loop
      vertex  1.900000e+001  1.947263e+001  8.965341e+000
      vertex  2.000000e+001  1.894450e+001  8.309693e+000
      vertex  1.900000e+001  1.894450e+001  8.309693e+000
    endloop
  endfacet
  facet normal  -0.000000e+000  9.942490e-001  1.070934e-001
    outer loop
      vertex  1.900000e+001  1.894450e+001  8.309693e+000
      vertex  2.000000e+001  1.894450e+001  8.309693e+000
      vertex  2.000000e+001  1.903466e+001  7.472632e+000
    endloop
  endfacet
  facet normal  0.000000e+000  9.942490e-001  1.070934e-001
    outer loop
      vertex  1.900000e+001  1.894450e+001  8.309693e+000
      vertex  2.000000e+001  1.903466e+001  7.472632e+000
      vertex  1.900000e+001  1.903466e+001  7.472632e+000
    endloop
  endfacet
  facet normal  0.000000e+000  7.787684e-001 -6.273115e-001
    outer loop
      vertex  2.000000e+001  1.894450e+001  8.309693e+000
      vertex  1.900000e+001  1.947263e+001  8.965341e+000
      vertex  2.000000e+001  1.947263e+001  8.965341e+000
    endloop
  endfacet
  facet normal  0.000000e+000  1.070955e-001 -9.942488e-001
    outer loop
      vertex  2.000000e+001  1.947263e+001  8.965341e+000
      vertex  1.900000e+001  1.947263e+001  8.965341e+000
      vertex  1.900000e+001  2.030969e+001  9.055505e+000
    endloop
  endfacet
  facet normal  0.000000e+000  1.070955e-001 -9.942488e-001
    outer loop
      vertex  2.000000e+001  1.947263e+001  8.965341e+000
      vertex  1.900000e+001  2.030969e+001  9.055505e+000
      vertex  2.000000e+001  2.030969e+001  9.055505e+000
    endloop
  endfacet
  facet normal  -0.000000e+000 -6.273122e-001 -7.787679e-001
    outer loop
      vertex  2.000000e+001  2.030969e+001  9.055505e+000
      vertex  1.900000e+001  2.030969e+001  9.055505e+000
      vertex  1.900000e+001  2.096534e+001  8.527369e+000
    endloop
  endfacet
  facet normal  0.000000e+000 -6.273122e-001 -7.787679e-001
    outer loop
      vertex  2.000000e+001  2.030969e+001  9.055505e+000
      vertex  1.900000e+001  2.096534e+001  8.527369e+000
      vertex  2.000000e+001  2.096534e+001  8.527369e+000
    endloop
  endfacet
  facet normal  0.000000e+000 -7.787684e-001  6.273115e-001
    outer loop
      vertex  1.900000e+001  2.052737e+001  7.034659e+000
      vertex  2.000000e+001  2.105550e+001  7.690307e+000
      vertex  1.900000e+001  2.105550e+001  7.690307e+000
    endloop
  endfacet
  facet normal  0.000000e+000 -9.942490e-001 -1.070933e-001
    outer loop
      vertex  1.900000e+001  2.105550e+001  7.690307e+000
      vertex  2.000000e+001  2.105550e+001  7.690307e+000
      vertex  2.000000e+001  2.096534e+001  8.527369e+000
    endloop
  endfacet
  facet normal  -0.000000e+000 -9.942490e-001 -1.070933e-001
    outer loop
      vertex  1.900000e+001  2.105550e+001  7.690307e+000
      vertex  2.000000e+001  2.096534e+001  8.527369e+000
      vertex  1.900000e+001  2.096534e+001  8.527369e+000
    endloop
  endfacet
  facet normal  0.000000e+000 -7.787684e-001  6.273115e-001
    outer loop
      vertex  2.000000e+001  2.105550e+001  7.690307e+000
      vertex  1.900000e+001  2.052737e+001  7.034659e+000
      vertex  2.000000e+001  2.052737e+001  7.034659e+000
    endloop
  endfacet
  facet normal  0.000000e+000 -1.070955e-001  9.942488e-001
    outer loop
      vertex  2.000000e+001  2.052737e+001  7.034659e+000
      vertex  1.900000e+001  2.052737e+001  7.034659e+000
      vertex  1.900000e+001  1.969031e+001  6.944495e+000
    endloop
  endfacet
  facet normal  0.000000e+000 -1.070955e-001  9.942488e-001
    outer loop
      vertex  2.000000e+001  2.052737e+001  7.034659e+000
      vertex  1.900000e+001  1.969031e+001  6.944495e+000
      vertex  2.000000e+001  1.969031e+001  6.944495e+000
    endloop
  endfacet
  facet normal  0.000000e+000  6.273126e-001  7.787676e-001
    outer loop
      vertex  2.000000e+001  1.969031e+001  6.944495e+000
      vertex  1.900000e+001  1.969031e+001  6.944495e+000
      vertex  1.900000e+001  1.903466e+001  7.472632e+000
    endloop
  endfacet
  facet normal  -0.000000e+000  6.273126e-001  7.787676e-001
    outer loop
      vertex  2.000000e+001  1.969031e+001  6.944495e+000
      vertex  1.900000e+001  1.903466e+001  7.472632e+000
      vertex  2.000000e+001  1.903466e+001  7.472632e+000
    endloop
  endfacet
  facet normal  0.000000e+000 -1.000000e+000  0.000000e+000
    outer loop
      vertex  1.900000e+001 -2.200000e+001  1.000000e+001
      vertex  1.900000e+001 -2.200000e+001 -1.000000e+001
      vertex  2.000000e+001 -2.200000e+001  1.000000e+001
    endloop
  endfacet
  facet normal  0.000000e+000 -1.000000e+000  -0.000000e+000
    outer loop
      vertex  2.000000e+001 -2.200000e+001  1.000000e+001
      vertex  1.900000e+001 -2.200000e+001 -1.000000e+001
      vertex  2.000000e+001 -2.200000e+001 -1.000000e+001
    endloop
  endfacet
  facet normal  0.000000e+000  0.000000e+000 -1.000000e+000
    outer loop
      vertex  1.900000e+001 -2.200000e+001 -1.000000e+001
      vertex  1.900000e+001  2.200000e+001 -1.000000e+001
      vertex  2.000000e+001 -2.200000e+001 -1.000000e+001
    endloop
  endfacet
  facet normal  0.000000e+000  0.000000e+000 -1.000000e+000
    outer loop
      vertex  2.000000e+001 -2.200000e+001 -1.000000e+001
      vertex  1.900000e+001  2.200000e+001 -1.000000e+001
      vertex  2.000000e+001  2.200000e+001 -1.000000e+001
    endloop
  endfacet
  facet normal  0.000000e+000  1.000000e+000  0.000000e+000
    outer loop
      vertex  1.900000e+001  2.200000e+001 -1.000000e+001
      vertex  1.900000e+001  2.200000e+001  1.000000e+001
      vertex  2.000000e+001  2.200000e+001 -1.000000e+001
    endloop
  endfacet
  facet normal  0.000000e+000  1.000000e+000  -0.000000e+000
    outer loop
      vertex  2.000000e+001  2.200000e+001 -1.000000e+001
      vertex  1.900000e+001  2.200000e+001  1.000000e+001
      vertex  2.000000e+001  2.200000e+001  1.000000e+001
    endloop
  endfacet
  facet normal  0.000000e+000  0.000000e+000  1.000000e+000
    outer loop
      vertex  1.900000e+001  2.200000e+001  1.000000e+001
      vertex  1.900000e+001 -2.200000e+001  1.000000e+001
      vertex  2.000000e+001  2.200000e+001  1.000000e+001
    endloop
  endfacet
  facet normal  0.000000e+000  0.000000e+000  1.000000e+000
    outer loop
      vertex  2.000000e+001  2.200000e+001  1.000000e+001
      vertex  1.900000e+001 -2.200000e+001  1.000000e+001
      vertex  2.000000e+001 -2.200000e+001  1.000000e+001
    endloop
  endfacet
endsolid CATIA STL
